<svg width="24" height="24" viewBox="0 0 24 24" fill="none" xmlns="http://www.w3.org/2000/svg">
<circle cx="12" cy="12" r="12" fill="#D31E47"/>
<path d="M15.7602 11.3801C15.7602 14.398 11.8801 16.9847 11.8801 16.9847C11.8801 16.9847 8 14.398 8 11.3801C8 10.351 8.4088 9.36412 9.13646 8.63646C9.86412 7.9088 10.851 7.5 11.8801 7.5C12.9092 7.5 13.8961 7.9088 14.6237 8.63646C15.3514 9.36412 15.7602 10.351 15.7602 11.3801Z" stroke="white" stroke-linecap="round" stroke-linejoin="round"/>
<path d="M11.8801 12.6735C12.5944 12.6735 13.1735 12.0944 13.1735 11.3801C13.1735 10.6658 12.5944 10.0867 11.8801 10.0867C11.1658 10.0867 10.5867 10.6658 10.5867 11.3801C10.5867 12.0944 11.1658 12.6735 11.8801 12.6735Z" stroke="white" stroke-linecap="round" stroke-linejoin="round"/>
</svg>
