<svg width="61" height="61" viewBox="0 0 61 61" fill="none" xmlns="http://www.w3.org/2000/svg">
<path d="M4.08337 41.75H56.5834V45.5H4.08337V41.75Z" fill="#D31E47"/>
<path d="M4.08337 49.25H56.5834V53H4.08337V49.25Z" fill="#D31E47"/>
<path d="M45.3334 19.25C44.5917 19.25 43.8667 19.4699 43.25 19.882C42.6333 20.294 42.1527 20.8797 41.8688 21.5649C41.585 22.2502 41.5107 23.0042 41.6554 23.7316C41.8001 24.459 42.1573 25.1272 42.6817 25.6516C43.2062 26.1761 43.8744 26.5333 44.6018 26.6779C45.3292 26.8226 46.0832 26.7484 46.7684 26.4645C47.4537 26.1807 48.0393 25.7001 48.4514 25.0834C48.8634 24.4667 49.0834 23.7417 49.0834 23C49.0834 22.0054 48.6883 21.0516 47.985 20.3484C47.2818 19.6451 46.3279 19.25 45.3334 19.25Z" fill="#D31E47"/>
<path d="M30.3334 30.5C28.85 30.5 27.4 30.0601 26.1666 29.236C24.9332 28.4119 23.9719 27.2406 23.4043 25.8701C22.8366 24.4997 22.6881 22.9917 22.9775 21.5368C23.2669 20.082 23.9812 18.7456 25.0301 17.6967C26.079 16.6478 27.4153 15.9335 28.8702 15.6441C30.3251 15.3547 31.8331 15.5032 33.2035 16.0709C34.5739 16.6386 35.7453 17.5999 36.5694 18.8332C37.3935 20.0666 37.8334 21.5166 37.8334 23C37.8309 24.9884 37.0399 26.8946 35.6339 28.3006C34.228 29.7065 32.3217 30.4975 30.3334 30.5ZM30.3334 19.25C29.5917 19.25 28.8667 19.4699 28.25 19.882C27.6333 20.294 27.1527 20.8797 26.8688 21.5649C26.585 22.2502 26.5107 23.0042 26.6554 23.7316C26.8001 24.459 27.1573 25.1272 27.6817 25.6517C28.2062 26.1761 28.8744 26.5333 29.6018 26.6779C30.3292 26.8226 31.0832 26.7484 31.7684 26.4646C32.4537 26.1807 33.0393 25.7001 33.4514 25.0834C33.8634 24.4667 34.0834 23.7417 34.0834 23C34.0824 22.0057 33.687 21.0525 32.9839 20.3495C32.2809 19.6464 31.3276 19.251 30.3334 19.25Z" fill="#D31E47"/>
<path d="M15.3334 19.25C14.5917 19.25 13.8667 19.4699 13.25 19.882C12.6333 20.294 12.1527 20.8797 11.8688 21.5649C11.585 22.2502 11.5107 23.0042 11.6554 23.7316C11.8001 24.459 12.1573 25.1272 12.6817 25.6516C13.2062 26.1761 13.8744 26.5333 14.6018 26.6779C15.3292 26.8226 16.0832 26.7484 16.7684 26.4645C17.4537 26.1807 18.0393 25.7001 18.4514 25.0834C18.8634 24.4667 19.0834 23.7417 19.0834 23C19.0834 22.0054 18.6883 21.0516 17.985 20.3484C17.2818 19.6451 16.3279 19.25 15.3334 19.25Z" fill="#D31E47"/>
<path d="M52.8334 38H7.83337C6.83957 37.9975 5.88718 37.6016 5.18446 36.8989C4.48173 36.1962 4.08585 35.2438 4.08337 34.25V11.75C4.08585 10.7562 4.48173 9.80381 5.18446 9.10108C5.88718 8.39836 6.83957 8.00248 7.83337 8H52.8334C53.8272 8.00248 54.7796 8.39836 55.4823 9.10108C56.185 9.80381 56.5809 10.7562 56.5834 11.75V34.25C56.5819 35.2441 56.1863 36.1971 55.4834 36.9C54.7804 37.6029 53.8275 37.9985 52.8334 38ZM52.8334 11.75H7.83337V34.25H52.8334V11.75Z" fill="#D31E47"/>
</svg>
