<svg width="24" height="25" viewBox="0 0 24 25" fill="none" xmlns="http://www.w3.org/2000/svg">
<path d="M1.5 17H22.5V18.5H1.5V17Z" fill="#D31E47"/>
<path d="M1.5 20H22.5V21.5H1.5V20Z" fill="#D31E47"/>
<path d="M18 8C17.7033 8 17.4133 8.08797 17.1666 8.2528C16.92 8.41762 16.7277 8.65189 16.6142 8.92598C16.5006 9.20006 16.4709 9.50166 16.5288 9.79264C16.5867 10.0836 16.7296 10.3509 16.9393 10.5607C17.1491 10.7704 17.4164 10.9133 17.7074 10.9712C17.9983 11.0291 18.2999 10.9994 18.574 10.8858C18.8481 10.7723 19.0824 10.58 19.2472 10.3334C19.412 10.0867 19.5 9.79667 19.5 9.5C19.5 9.10218 19.342 8.72064 19.0607 8.43934C18.7794 8.15804 18.3978 8 18 8Z" fill="#D31E47"/>
<path d="M12 12.5C11.4067 12.5 10.8266 12.3241 10.3333 11.9944C9.83994 11.6648 9.45543 11.1962 9.22836 10.6481C9.0013 10.0999 8.94189 9.49667 9.05765 8.91473C9.1734 8.33279 9.45912 7.79824 9.87868 7.37868C10.2982 6.95912 10.8328 6.6734 11.4147 6.55765C11.9967 6.44189 12.5999 6.5013 13.1481 6.72836C13.6962 6.95543 14.1648 7.33994 14.4944 7.83329C14.8241 8.32664 15 8.90666 15 9.5C14.999 10.2953 14.6826 11.0578 14.1202 11.6202C13.5578 12.1826 12.7953 12.499 12 12.5ZM12 8C11.7033 8 11.4133 8.08798 11.1666 8.2528C10.92 8.41762 10.7277 8.65189 10.6142 8.92598C10.5007 9.20007 10.4709 9.50167 10.5288 9.79264C10.5867 10.0836 10.7296 10.3509 10.9393 10.5607C11.1491 10.7704 11.4164 10.9133 11.7074 10.9712C11.9983 11.0291 12.2999 10.9994 12.574 10.8858C12.8481 10.7723 13.0824 10.58 13.2472 10.3334C13.412 10.0867 13.5 9.79667 13.5 9.5C13.4996 9.1023 13.3414 8.721 13.0602 8.43978C12.779 8.15856 12.3977 8.0004 12 8Z" fill="#D31E47"/>
<path d="M6 8C5.70333 8 5.41332 8.08797 5.16665 8.2528C4.91997 8.41762 4.72771 8.65189 4.61418 8.92598C4.50065 9.20006 4.47094 9.50166 4.52882 9.79264C4.5867 10.0836 4.72956 10.3509 4.93934 10.5607C5.14912 10.7704 5.41639 10.9133 5.70737 10.9712C5.99834 11.0291 6.29994 10.9994 6.57403 10.8858C6.84811 10.7723 7.08238 10.58 7.24721 10.3334C7.41203 10.0867 7.5 9.79667 7.5 9.5C7.5 9.10218 7.34197 8.72064 7.06066 8.43934C6.77936 8.15804 6.39783 8 6 8Z" fill="#D31E47"/>
<path d="M21 15.5H3C2.60248 15.499 2.22152 15.3407 1.94043 15.0596C1.65934 14.7785 1.50099 14.3975 1.5 14V5C1.50099 4.60248 1.65934 4.22152 1.94043 3.94043C2.22152 3.65934 2.60248 3.50099 3 3.5H21C21.3975 3.50099 21.7785 3.65934 22.0596 3.94043C22.3407 4.22152 22.499 4.60248 22.5 5V14C22.4994 14.3976 22.3412 14.7788 22.06 15.06C21.7788 15.3412 21.3976 15.4994 21 15.5ZM21 5H3V14H21V5Z" fill="#D31E47"/>
</svg>
