<svg width="57" height="57" viewBox="0 0 57 57" fill="none" xmlns="http://www.w3.org/2000/svg">
<path d="M24.9375 29.5509L20.3241 24.9375L17.8125 27.4491L24.9375 34.5741L39.1875 20.3241L36.6759 17.8125L24.9375 29.5509Z" fill="#D31E47"/>
<path d="M28.5 53.4375L17.499 47.5718C14.3628 45.9034 11.7402 43.4124 9.91253 40.3662C8.08488 37.32 7.12124 33.8336 7.12501 30.2812V7.125C7.12595 6.18046 7.50159 5.27487 8.16949 4.60697C8.83738 3.93908 9.74297 3.56344 10.6875 3.5625H46.3125C47.2571 3.56344 48.1626 3.93908 48.8305 4.60697C49.4984 5.27487 49.8741 6.18046 49.875 7.125V30.2812C49.8788 33.8336 48.9151 37.32 47.0875 40.3662C45.2598 43.4124 42.6372 45.9034 39.501 47.5718L28.5 53.4375ZM10.6875 7.125V30.2812C10.6846 33.1879 11.4732 36.0405 12.9689 38.5328C14.4645 41.0251 16.6107 43.0631 19.1769 44.4279L28.5 49.3994L37.8231 44.4297C40.3896 43.0647 42.5359 41.0265 44.0316 38.5338C45.5273 36.0412 46.3158 33.1882 46.3125 30.2812V7.125H10.6875Z" fill="#D31E47"/>
</svg>
