<svg width="61" height="61" viewBox="0 0 61 61" fill="none" xmlns="http://www.w3.org/2000/svg">
<path d="M30.6667 5.5C16.8817 5.5 5.66675 16.715 5.66675 30.5V40.8575C5.66675 43.4175 7.90925 45.5 10.6667 45.5H13.1667C13.8298 45.5 14.4657 45.2366 14.9345 44.7678C15.4034 44.2989 15.6667 43.663 15.6667 43V30.1425C15.6667 29.4795 15.4034 28.8436 14.9345 28.3747C14.4657 27.9059 13.8298 27.6425 13.1667 27.6425H10.8967C12.2867 17.9675 20.6117 10.5 30.6667 10.5C40.7217 10.5 49.0467 17.9675 50.4368 27.6425H48.1667C47.5037 27.6425 46.8678 27.9059 46.399 28.3747C45.9301 28.8436 45.6667 29.4795 45.6667 30.1425V45.5C45.6667 48.2575 43.4242 50.5 40.6667 50.5H35.6667V48H25.6667V55.5H40.6667C46.1817 55.5 50.6667 51.015 50.6667 45.5C53.4242 45.5 55.6667 43.4175 55.6667 40.8575V30.5C55.6667 16.715 44.4517 5.5 30.6667 5.5Z" fill="#D31E47"/>
</svg>
