<svg width="24" height="25" viewBox="0 0 24 25" fill="none" xmlns="http://www.w3.org/2000/svg">
<path d="M7 17.5129L11.413 17.4979L21.045 7.9579C21.423 7.5799 21.631 7.0779 21.631 6.5439C21.631 6.0099 21.423 5.5079 21.045 5.1299L19.459 3.5439C18.703 2.7879 17.384 2.7919 16.634 3.5409L7 13.0829V17.5129ZM18.045 4.9579L19.634 6.5409L18.037 8.1229L16.451 6.5379L18.045 4.9579ZM9 13.9169L15.03 7.9439L16.616 9.5299L10.587 15.5009L9 15.5059V13.9169Z" fill="#D31E47"/>
<path d="M5 21.5H19C20.103 21.5 21 20.603 21 19.5V10.832L19 12.832V19.5H8.158C8.132 19.5 8.105 19.51 8.079 19.51C8.046 19.51 8.013 19.501 7.979 19.5H5V5.5H11.847L13.847 3.5H5C3.897 3.5 3 4.397 3 5.5V19.5C3 20.603 3.897 21.5 5 21.5Z" fill="#D31E47"/>
</svg>
