<svg width="60" height="61" viewBox="0 0 60 61" fill="none" xmlns="http://www.w3.org/2000/svg">
<path d="M17.5 43.0325L28.5325 42.995L52.6125 19.145C53.5575 18.2 54.0775 16.945 54.0775 15.61C54.0775 14.275 53.5575 13.02 52.6125 12.075L48.6475 8.11C46.7575 6.22 43.46 6.23 41.585 8.1025L17.5 31.9575V43.0325ZM45.1125 11.645L49.085 15.6025L45.0925 19.5575L41.1275 15.595L45.1125 11.645ZM22.5 34.0425L37.575 19.11L41.54 23.075L26.4675 38.0025L22.5 38.015V34.0425Z" fill="#D31E47"/>
<path d="M12.5 53H47.5C50.2575 53 52.5 50.7575 52.5 48V26.33L47.5 31.33V48H20.395C20.33 48 20.2625 48.025 20.1975 48.025C20.115 48.025 20.0325 48.0025 19.9475 48H12.5V13H29.6175L34.6175 8H12.5C9.7425 8 7.5 10.2425 7.5 13V48C7.5 50.7575 9.7425 53 12.5 53Z" fill="#D31E47"/>
</svg>
