<svg width="102" height="16" viewBox="0 0 102 16" fill="none" xmlns="http://www.w3.org/2000/svg">
<path d="M32.8325 3.92627H30.5383V12.3076H32.8325V3.92627Z" fill="white"/>
<path d="M38.9914 3.69971C38.0208 3.69971 37.0202 4.15275 36.4408 5.09282H36.3882V3.92623H34.2063V12.3075H36.501V7.91301C36.501 6.21033 37.0352 5.51566 38.2766 5.51566C39.3412 5.51566 39.7475 6.19522 39.7475 7.57323V12.3075H42.0422V7.15039C42.0422 5.07772 41.429 3.69971 38.9914 3.69971Z" fill="white"/>
<path d="M48.0309 7.26352C46.7218 6.95394 45.4315 6.84068 45.4315 6.01388C45.4315 5.33431 46.1914 5.23615 46.7068 5.23615C47.5306 5.23615 48.2077 5.47777 48.2717 6.36876H50.4536C50.2768 4.31119 48.5952 3.6958 46.7707 3.6958C44.9763 3.6958 43.1368 4.247 43.1368 6.38764C43.1368 7.8638 44.4609 8.33195 45.7851 8.62265C47.4328 8.97754 48.3845 9.22294 48.3845 9.92138C48.3845 10.7331 47.5457 10.9898 46.8836 10.9898C45.9807 10.9898 45.1381 10.5858 45.123 9.57782H42.9412C43.039 11.7977 44.9274 12.5264 46.8648 12.5264C48.772 12.5264 50.6755 11.8128 50.6755 9.60802C50.6793 8.06012 49.3702 7.5731 48.0309 7.26352Z" fill="white"/>
<path d="M57.1496 8.31689C57.1496 10.0196 56.6154 10.7142 55.374 10.7142C54.3094 10.7142 53.9031 10.0347 53.9031 8.65667V3.92614H51.6084V9.07951C51.6084 11.156 52.2216 12.5302 54.6593 12.5302C55.6298 12.5302 56.6305 12.0772 57.2098 11.1371H57.2587V12.3037H59.4406V3.92236H57.1458V8.31689H57.1496Z" fill="white"/>
<path d="M63.0219 5.48168H62.988V3.92623H60.8062V12.3075H63.1009V8.53217C63.1009 7.05601 63.6802 5.84034 65.3617 5.84034C65.6364 5.84034 65.9749 5.87432 66.1856 5.9234V3.77899C66.0389 3.72991 65.847 3.69971 65.6853 3.69971C64.5718 3.69971 63.4432 4.42835 63.0219 5.48168Z" fill="white"/>
<path d="M74.2246 6.08196C74.2246 4.07347 72.2233 3.69971 70.5568 3.69971C68.6835 3.69971 66.7612 4.34907 66.6332 6.5048H68.928C69.0107 5.59872 69.575 5.24006 70.4478 5.24006C71.2566 5.24006 71.9337 5.3873 71.9337 6.37267C71.9337 7.31273 70.6246 7.26365 69.2214 7.47507C67.7994 7.67139 66.3774 8.12444 66.3774 10.0197C66.3774 11.7375 67.6377 12.5341 69.2214 12.5341C70.2371 12.5341 71.3055 12.2585 72.0315 11.4958C72.0465 11.7714 72.1143 12.047 72.1933 12.3075H74.5181C74.3074 11.9678 74.2284 11.2051 74.2284 10.4425V6.08196H74.2246ZM71.9337 9.0645C71.9337 9.56663 71.8697 10.9937 70.0753 10.9937C69.3305 10.9937 68.6684 10.7823 68.6684 9.92529C68.6684 9.08338 69.3154 8.83798 70.0264 8.69452C70.7374 8.56615 71.5462 8.54728 71.9337 8.20749V9.0645Z" fill="white"/>
<path d="M80.3978 3.69971C79.4272 3.69971 78.4266 4.15275 77.8472 5.09282H77.7983V3.92623H75.6165V12.3075H77.9112V7.91301C77.9112 6.21033 78.4454 5.51566 79.6868 5.51566C80.7514 5.51566 81.1577 6.19522 81.1577 7.57323V12.3075H83.4524V7.15039C83.4486 5.07772 82.8354 3.69971 80.3978 3.69971Z" fill="white"/>
<path d="M88.6476 10.7974C87.2106 10.7974 86.7403 9.35521 86.7403 8.15464C86.7403 6.92387 87.2256 5.4326 88.6965 5.4326C89.6482 5.4326 90.2464 5.93472 90.3931 6.87479H92.6389C92.4922 4.73416 90.6827 3.69971 88.7153 3.69971C86.003 3.69971 84.4531 5.62892 84.4531 8.2377C84.4531 10.7483 86.1497 12.5341 88.6702 12.5341C90.8671 12.5341 92.4019 11.3184 92.6916 9.09848H90.4796C90.3291 10.1178 89.7159 10.7974 88.6476 10.7974Z" fill="white"/>
<path d="M97.435 3.69971C94.8995 3.69971 93.1729 5.61382 93.1729 8.12444C93.1729 10.7181 94.8055 12.5341 97.435 12.5341C99.3235 12.5341 100.697 11.6922 101.344 9.71386H99.3235C99.1768 10.2311 98.4357 10.8012 97.514 10.8012C96.2388 10.8012 95.5278 10.1367 95.4638 8.67941H101.487C101.652 6.09706 100.279 3.69971 97.435 3.69971ZM95.4638 7.21457C95.4977 6.56521 95.9152 5.4326 97.3711 5.4326C98.4846 5.4326 98.9849 6.04798 99.1956 7.21457H95.4638Z" fill="white"/>
<path d="M15.2803 0.00341797H12.4626V2.33282H15.2803V0.00341797Z" fill="#D31E47"/>
<path d="M23.2591 4.00189L25.2529 2.00094L27.2467 0H24.162C23.5827 0 23.0297 0.230297 22.6196 0.641812L21.2654 2.00094L17.5901 5.68948C17.0183 6.26333 16.2433 6.58424 15.4383 6.58424H15.2803V3.92261H12.4627V6.58424H12.3047C11.4959 6.58424 10.7247 6.26333 10.1529 5.68948L6.47757 2.00472L5.1233 0.645588C4.71326 0.234073 4.16027 0.00377537 3.58095 0.00377537H0.5L2.49378 2.00472L4.48755 4.00566L8.33216 7.86409C8.41115 7.94337 8.41115 8.06796 8.33216 8.14724L4.48379 12.0019L2.49001 14.0028L0.5 16H3.58095C4.16027 16 4.71326 15.7697 5.11954 15.3582L6.47381 13.9991L10.1491 10.3105C10.7209 9.73667 11.4959 9.41576 12.3009 9.41576H12.4589V16H15.2765V9.41576H15.4345C16.2433 9.41576 17.0145 9.73667 17.5863 10.3105L21.2616 13.9991L22.6159 15.3582C23.0259 15.7697 23.5789 16 24.1545 16H27.2354L25.2416 13.9991L23.2479 11.9981L19.4145 8.14346C19.3355 8.06418 19.3355 7.93959 19.4145 7.86031L23.2591 4.00189Z" fill="#D31E47"/>
</svg>
