<svg width="101" height="16" viewBox="0 0 101 16" fill="none" xmlns="http://www.w3.org/2000/svg">
<path d="M32.333 3.92627H30.0383V12.3076H32.333V3.92627Z" fill="white"/>
<path d="M38.4913 3.69971C37.5207 3.69971 36.5201 4.15275 35.9407 5.09282H35.8881V3.92623H33.7062V12.3075H36.0009V7.91302C36.0009 6.21033 36.5351 5.51566 37.7765 5.51566C38.8411 5.51566 39.2474 6.19522 39.2474 7.57323V12.3075H41.5421V7.15039C41.5421 5.07772 40.9289 3.69971 38.4913 3.69971Z" fill="white"/>
<path d="M47.5309 7.26401C46.2218 6.95443 44.9315 6.84117 44.9315 6.01436C44.9315 5.3348 45.6914 5.23664 46.2067 5.23664C47.0306 5.23664 47.7077 5.47826 47.7717 6.36925H49.9535C49.7767 4.31167 48.0952 3.69629 46.2707 3.69629C44.4763 3.69629 42.6367 4.24749 42.6367 6.38812C42.6367 7.86429 43.9609 8.33244 45.2851 8.62314C46.9328 8.97803 47.8845 9.22343 47.8845 9.92187C47.8845 10.7336 47.0456 10.9903 46.3835 10.9903C45.4807 10.9903 44.638 10.5863 44.623 9.57831H42.4411C42.5389 11.7982 44.4274 12.5269 46.3647 12.5269C48.272 12.5269 50.1755 11.8133 50.1755 9.60851C50.1792 8.06061 48.8701 7.57359 47.5309 7.26401Z" fill="white"/>
<path d="M56.6496 8.31689C56.6496 10.0196 56.1154 10.7142 54.874 10.7142C53.8094 10.7142 53.4031 10.0347 53.4031 8.65667V3.92614H51.1084V9.07951C51.1084 11.156 51.7216 12.5302 54.1593 12.5302C55.1298 12.5302 56.1305 12.0772 56.7098 11.1371H56.7587V12.3037H58.9406V3.92236H56.6458V8.31689H56.6496Z" fill="white"/>
<path d="M62.5219 5.48168H62.488V3.92623H60.3061V12.3075H62.6009V8.53218C62.6009 7.05601 63.1802 5.84034 64.8617 5.84034C65.1363 5.84034 65.4749 5.87432 65.6856 5.9234V3.77899C65.5389 3.72991 65.347 3.69971 65.1852 3.69971C64.0717 3.69971 62.9432 4.42835 62.5219 5.48168Z" fill="white"/>
<path d="M73.7246 6.08196C73.7246 4.07347 71.7233 3.69971 70.0568 3.69971C68.1834 3.69971 66.2611 4.34907 66.1332 6.5048H68.4279C68.5107 5.59872 69.075 5.24006 69.9477 5.24006C70.7565 5.24006 71.4337 5.3873 71.4337 6.37267C71.4337 7.31273 70.1245 7.26365 68.7214 7.47507C67.2994 7.67139 65.8774 8.12444 65.8774 10.0197C65.8774 11.7375 67.1376 12.5341 68.7214 12.5341C69.7371 12.5341 70.8054 12.2585 71.5315 11.4958C71.5465 11.7714 71.6142 12.047 71.6932 12.3075H74.018C73.8074 11.9678 73.7284 11.2051 73.7284 10.4425V6.08196H73.7246ZM71.4337 9.0645C71.4337 9.56663 71.3697 10.9937 69.5753 10.9937C68.8305 10.9937 68.1684 10.7823 68.1684 9.92529C68.1684 9.08338 68.8154 8.83798 69.5264 8.69452C70.2374 8.56615 71.0462 8.54728 71.4337 8.20749V9.0645Z" fill="white"/>
<path d="M79.8977 3.69971C78.9272 3.69971 77.9265 4.15275 77.3472 5.09282H77.2983V3.92623H75.1164V12.3075H77.4112V7.91302C77.4112 6.21033 77.9453 5.51566 79.1867 5.51566C80.2513 5.51566 80.6576 6.19522 80.6576 7.57323V12.3075H82.9523V7.15039C82.9486 5.07772 82.3354 3.69971 79.8977 3.69971Z" fill="white"/>
<path d="M88.1476 10.7974C86.7105 10.7974 86.2403 9.35521 86.2403 8.15464C86.2403 6.92387 86.7256 5.4326 88.1965 5.4326C89.1482 5.4326 89.7463 5.93472 89.893 6.87479H92.1389C91.9922 4.73416 90.1827 3.69971 88.2153 3.69971C85.503 3.69971 83.9531 5.62892 83.9531 8.2377C83.9531 10.7483 85.6497 12.5341 88.1701 12.5341C90.367 12.5341 91.9019 11.3184 92.1915 9.09848H89.9796C89.8291 10.1178 89.2159 10.7974 88.1476 10.7974Z" fill="white"/>
<path d="M96.9351 3.69971C94.3997 3.69971 92.673 5.61382 92.673 8.12444C92.673 10.7181 94.3056 12.5341 96.9351 12.5341C98.8236 12.5341 100.197 11.6922 100.844 9.71386H98.8236C98.6769 10.2311 97.9358 10.8012 97.0141 10.8012C95.7389 10.8012 95.0279 10.1367 94.9639 8.67941H100.987C101.152 6.09706 99.7791 3.69971 96.9351 3.69971ZM94.9639 7.21457C94.9978 6.56521 95.4154 5.4326 96.8712 5.4326C97.9847 5.4326 98.485 6.04798 98.6957 7.21457H94.9639Z" fill="white"/>
<path d="M14.7802 0.00390625H11.9626V2.33331H14.7802V0.00390625Z" fill="#D31E47"/>
<path d="M22.7591 4.00189L24.7529 2.00094L26.7467 0H23.662C23.0827 0 22.5297 0.230297 22.1196 0.641812L20.7654 2.00094L17.0901 5.68948C16.5183 6.26333 15.7433 6.58424 14.9383 6.58424H14.7803V3.92261H11.9627V6.58424H11.8047C10.9959 6.58424 10.2247 6.26333 9.65289 5.68948L5.97757 2.00472L4.6233 0.645588C4.21326 0.234073 3.66027 0.00377537 3.08095 0.00377537H0L1.99378 2.00472L3.98755 4.00566L7.83216 7.86409C7.91116 7.94337 7.91116 8.06796 7.83216 8.14724L3.98379 12.0019L1.99001 14.0028L0 16H3.08095C3.66027 16 4.21326 15.7697 4.61954 15.3582L5.97381 13.9991L9.64913 10.3105C10.2209 9.73667 10.9959 9.41576 11.8009 9.41576H11.9589V16H14.7765V9.41576H14.9345C15.7433 9.41576 16.5145 9.73667 17.0863 10.3105L20.7616 13.9991L22.1159 15.3582C22.5259 15.7697 23.0789 16 23.6545 16H26.7354L24.7416 13.9991L22.7479 11.9981L18.9145 8.14346C18.8355 8.06418 18.8355 7.93959 18.9145 7.86031L22.7591 4.00189Z" fill="#D31E47"/>
</svg>
