<svg width="185" height="30" viewBox="0 0 185 30" fill="none" xmlns="http://www.w3.org/2000/svg">
<path d="M59.2238 7.16992H55.0206V22.4752H59.2238V7.16992Z" fill="white"/>
<path d="M70.5037 6.75635C68.726 6.75635 66.8931 7.58366 65.832 9.30033H65.7355V7.17H61.739V22.4753H65.9422V14.4503C65.9422 11.341 66.9207 10.0725 69.1945 10.0725C71.1445 10.0725 71.8887 11.3135 71.8887 13.8299V22.4753H76.0919V13.0577C76.0919 9.27276 74.9688 6.75635 70.5037 6.75635Z" fill="white"/>
<path d="M87.0615 13.2646C84.6636 12.6993 82.3002 12.4924 82.3002 10.9826C82.3002 9.74162 83.692 9.56237 84.636 9.56237C86.1451 9.56237 87.3853 10.0036 87.5025 11.6307H91.499C91.1751 7.87328 88.0951 6.74951 84.7532 6.74951C81.4664 6.74951 78.097 7.75607 78.097 11.6651C78.097 14.3608 80.5224 15.2157 82.9479 15.7465C85.9659 16.3946 87.7092 16.8427 87.7092 18.1182C87.7092 19.6004 86.1726 20.0692 84.9599 20.0692C83.3062 20.0692 81.7627 19.3316 81.7351 17.4908H77.7386C77.9178 21.5446 81.3768 22.8752 84.9254 22.8752C88.4189 22.8752 91.9055 21.5722 91.9055 17.5459C91.9124 14.7193 89.5145 13.8299 87.0615 13.2646Z" fill="white"/>
<path d="M103.764 15.188C103.764 18.2973 102.786 19.5659 100.512 19.5659C98.5618 19.5659 97.8176 18.3249 97.8176 15.8085V7.16998H93.6144V16.5807C93.6144 20.3725 94.7375 22.882 99.2026 22.882C100.98 22.882 102.813 22.0547 103.874 20.338H103.964V22.4684H107.96V7.16309H103.757V15.188H103.764Z" fill="white"/>
<path d="M114.52 10.0104H114.458V7.17H110.462V22.4753H114.665V15.581C114.665 12.8854 115.726 10.6654 118.806 10.6654C119.309 10.6654 119.929 10.7274 120.315 10.8171V6.90113C120.046 6.8115 119.695 6.75635 119.399 6.75635C117.359 6.75635 115.292 8.08694 114.52 10.0104Z" fill="white"/>
<path d="M135.04 11.1066C135.04 7.43888 131.374 6.75635 128.322 6.75635C124.89 6.75635 121.369 7.94216 121.135 11.8788H125.338C125.49 10.2242 126.523 9.56921 128.122 9.56921C129.603 9.56921 130.844 9.83809 130.844 11.6375C130.844 13.3542 128.446 13.2645 125.876 13.6506C123.271 14.0091 120.667 14.8364 120.667 18.2974C120.667 21.4342 122.975 22.8889 125.876 22.8889C127.736 22.8889 129.693 22.3857 131.023 20.993C131.05 21.4963 131.175 21.9996 131.319 22.4753H135.578C135.192 21.8548 135.047 20.4622 135.047 19.0695V11.1066H135.04ZM130.844 16.5531C130.844 17.47 130.727 20.0761 127.44 20.0761C126.076 20.0761 124.863 19.69 124.863 18.125C124.863 16.5876 126.048 16.1394 127.35 15.8775C128.653 15.6431 130.134 15.6086 130.844 14.9881V16.5531Z" fill="white"/>
<path d="M146.347 6.75635C144.57 6.75635 142.737 7.58366 141.676 9.30033H141.586V7.17H137.589V22.4753H141.793V14.4503C141.793 11.341 142.771 10.0725 145.045 10.0725C146.995 10.0725 147.739 11.3135 147.739 13.8299V22.4753H151.942V13.0577C151.936 9.27276 150.812 6.75635 146.347 6.75635Z" fill="white"/>
<path d="M161.458 19.7176C158.826 19.7176 157.965 17.084 157.965 14.8916C157.965 12.6441 158.854 9.92082 161.548 9.92082C163.291 9.92082 164.387 10.8378 164.655 12.5544H168.769C168.5 8.64538 165.186 6.75635 161.582 6.75635C156.614 6.75635 153.775 10.2793 153.775 15.0433C153.775 19.6279 156.883 22.8889 161.5 22.8889C165.524 22.8889 168.335 20.669 168.866 16.6151H164.814C164.538 18.4766 163.415 19.7176 161.458 19.7176Z" fill="white"/>
<path d="M177.554 6.75635C172.91 6.75635 169.747 10.2517 169.747 14.8364C169.747 19.5728 172.738 22.8889 177.554 22.8889C181.013 22.8889 183.528 21.3515 184.714 17.7389H181.013C180.745 18.6834 179.387 19.7245 177.699 19.7245C175.363 19.7245 174.061 18.5111 173.944 15.8499H184.975C185.279 11.1342 182.764 6.75635 177.554 6.75635ZM173.944 13.1749C174.006 11.9891 174.771 9.92082 177.437 9.92082C179.477 9.92082 180.393 11.0446 180.779 13.1749H173.944Z" fill="white"/>
<path d="M27.0727 0.00683594H21.9117V4.2606H27.0727V0.00683594Z" fill="#D31E47"/>
<path d="M41.6875 7.30792L45.3395 3.65396L48.9915 0H43.3413C42.2801 0 41.2672 0.42055 40.5161 1.17203L38.0356 3.65396L31.3035 10.3897C30.2562 11.4376 28.8367 12.0236 27.3622 12.0236H27.0728V7.16314H21.9118V12.0236H21.6224C20.1409 12.0236 18.7284 11.4376 17.681 10.3897L10.949 3.66086L8.46843 1.17892C7.71736 0.427445 6.70446 0.00689427 5.64332 0.00689427H0L3.65197 3.66086L7.30393 7.31482L14.346 14.3608C14.4907 14.5055 14.4907 14.733 14.346 14.8778L7.29704 21.9169L3.64508 25.5708L0 29.2179H5.64332C6.70446 29.2179 7.71736 28.7974 8.46154 28.0459L10.9421 25.5639L17.6741 18.8282C18.7215 17.7803 20.1409 17.1943 21.6155 17.1943H21.9049V29.2179H27.0659V17.1943H27.3553C28.8367 17.1943 30.2493 17.7803 31.2967 18.8282L38.0287 25.5639L40.5093 28.0459C41.2603 28.7974 42.2732 29.2179 43.3275 29.2179H48.9708L45.3188 25.5639L41.6669 21.91L34.6454 14.8709C34.5007 14.7262 34.5007 14.4986 34.6454 14.3539L41.6875 7.30792Z" fill="#D31E47"/>
</svg>
