<svg width="297" height="47" viewBox="0 0 297 47" fill="none" xmlns="http://www.w3.org/2000/svg">
<path d="M95.0783 11.5104H88.3304V36.0816H95.0783V11.5104Z" fill="white"/>
<path d="M113.187 10.8467C110.333 10.8467 107.391 12.1749 105.687 14.9308H105.532V11.5108H99.1163V36.0819H105.864V23.1987C105.864 18.207 107.435 16.1704 111.085 16.1704C114.216 16.1704 115.411 18.1627 115.411 22.2025V36.0819H122.159V20.9629C122.159 14.8865 120.355 10.8467 113.187 10.8467Z" fill="white"/>
<path d="M139.769 21.295C135.919 20.3875 132.125 20.0554 132.125 17.6315C132.125 15.6392 134.36 15.3515 135.875 15.3515C138.298 15.3515 140.289 16.0598 140.477 18.6719H146.893C146.373 12.6398 141.428 10.8357 136.063 10.8357C130.787 10.8357 125.377 12.4516 125.377 18.7272C125.377 23.0549 129.271 24.4273 133.165 25.2796C138.01 26.32 140.809 27.0394 140.809 29.087C140.809 31.4666 138.342 32.2193 136.395 32.2193C133.74 32.2193 131.262 31.035 131.218 28.0798H124.802C125.09 34.5878 130.643 36.724 136.34 36.724C141.948 36.724 147.546 34.6321 147.546 28.1683C147.557 23.6304 143.707 22.2026 139.769 21.295Z" fill="white"/>
<path d="M166.583 24.383C166.583 29.3747 165.013 31.4113 161.362 31.4113C158.232 31.4113 157.037 29.419 157.037 25.3792V11.5108H150.289V26.6188C150.289 32.7062 152.092 36.735 159.26 36.735C162.114 36.735 165.057 35.4069 166.76 32.6509H166.904V36.0709H173.32V11.4998H166.572V24.383H166.583Z" fill="white"/>
<path d="M183.851 16.0708H183.752V11.5108H177.336V36.0819H184.084V25.0138C184.084 20.6862 185.787 17.1223 190.732 17.1223C191.539 17.1223 192.535 17.2219 193.155 17.3658V11.0791C192.723 10.9352 192.159 10.8467 191.683 10.8467C188.409 10.8467 185.09 12.9828 183.851 16.0708Z" fill="white"/>
<path d="M216.794 17.8307C216.794 11.9424 210.909 10.8467 206.009 10.8467C200.5 10.8467 194.847 12.7504 194.471 19.0703H201.219C201.462 16.4139 203.122 15.3625 205.688 15.3625C208.066 15.3625 210.057 15.7941 210.057 18.6829C210.057 21.4389 206.208 21.295 202.082 21.9148C197.9 22.4903 193.719 23.8185 193.719 29.3747C193.719 34.4107 197.425 36.746 202.082 36.746C205.068 36.746 208.21 35.9381 210.345 33.7023C210.389 34.5103 210.588 35.3182 210.821 36.0819H217.657C217.038 35.0858 216.805 32.8501 216.805 30.6143V17.8307H216.794ZM210.057 26.5744C210.057 28.0465 209.869 32.2302 204.593 32.2302C202.402 32.2302 200.456 31.6104 200.456 29.098C200.456 26.6298 202.358 25.9104 204.449 25.4898C206.54 25.1135 208.918 25.0581 210.057 24.062V26.5744Z" fill="white"/>
<path d="M234.947 10.8467C232.093 10.8467 229.15 12.1749 227.447 14.9308H227.303V11.5108H220.887V36.0819H227.635V23.1987C227.635 18.207 229.206 16.1704 232.856 16.1704C235.987 16.1704 237.181 18.1627 237.181 22.2025V36.0819H243.929V20.9629C243.918 14.8865 242.115 10.8467 234.947 10.8467Z" fill="white"/>
<path d="M259.206 31.6547C254.981 31.6547 253.598 27.4267 253.598 23.907C253.598 20.2988 255.025 15.9269 259.35 15.9269C262.149 15.9269 263.908 17.399 264.339 20.155H270.943C270.512 13.8793 265.191 10.8467 259.405 10.8467C251.43 10.8467 246.872 16.5025 246.872 24.1505C246.872 31.5108 251.861 36.746 259.273 36.746C265.733 36.746 270.246 33.1821 271.098 26.6741H264.593C264.151 29.6624 262.348 31.6547 259.206 31.6547Z" fill="white"/>
<path d="M285.047 10.8467C277.591 10.8467 272.514 16.4582 272.514 23.8185C272.514 31.4223 277.314 36.746 285.047 36.746C290.6 36.746 294.638 34.2778 296.54 28.4782H290.6C290.169 29.9945 287.989 31.6658 285.279 31.6658C281.529 31.6658 279.438 29.7178 279.25 25.4455H296.961C297.447 17.8749 293.41 10.8467 285.047 10.8467ZM279.25 21.1511C279.35 19.2474 280.578 15.9269 284.859 15.9269C288.133 15.9269 289.604 17.731 290.224 21.1511H279.25Z" fill="white"/>
<path d="M43.4627 0.0109863H35.1772V6.84001H43.4627V0.0109863Z" fill="#D31E47"/>
<path d="M66.9254 11.7322L72.7883 5.86609L78.6512 0H69.5803C67.8768 0 66.2506 0.675154 65.0449 1.88158L61.0625 5.86609L50.2549 16.6796C48.5735 18.362 46.2947 19.3028 43.9274 19.3028H43.4628V11.4998H35.1773V19.3028H34.7127C32.3344 19.3028 30.0667 18.362 28.3852 16.6796L17.5776 5.87716L13.5953 1.89265C12.3895 0.686222 10.7634 0.0110681 9.05982 0.0110681H0L5.86289 5.87716L11.7258 11.7433L23.0312 23.0549C23.2635 23.2873 23.2635 23.6525 23.0312 23.885L11.7147 35.1855L5.85183 41.0516L0 46.9066H9.05982C10.7634 46.9066 12.3895 46.2314 13.5842 45.025L17.5665 41.0405L28.3742 30.227C30.0556 28.5446 32.3344 27.6038 34.7017 27.6038H35.1663V46.9066H43.4517V27.6038H43.9164C46.2947 27.6038 48.5624 28.5446 50.2438 30.227L61.0515 41.0405L65.0338 45.025C66.2396 46.2314 67.8657 46.9066 69.5582 46.9066H78.618L72.7551 41.0405L66.8922 35.1744L55.62 23.8739C55.3877 23.6415 55.3877 23.2762 55.62 23.0438L66.9254 11.7322Z" fill="#D31E47"/>
</svg>
