<svg width="16" height="16" viewBox="0 0 16 16" fill="none" xmlns="http://www.w3.org/2000/svg">
<path d="M10.6667 5.3335C11.7275 5.3335 12.745 5.75492 13.4951 6.50507C14.2452 7.25521 14.6667 8.27263 14.6667 9.3335V14.0002H12V9.3335C12 8.97987 11.8595 8.64074 11.6095 8.39069C11.3594 8.14064 11.0203 8.00016 10.6667 8.00016C10.313 8.00016 9.97391 8.14064 9.72386 8.39069C9.47381 8.64074 9.33333 8.97987 9.33333 9.3335V14.0002H6.66667V9.3335C6.66667 8.27263 7.0881 7.25521 7.83824 6.50507C8.58839 5.75492 9.6058 5.3335 10.6667 5.3335V5.3335Z" stroke="#F70D42" stroke-linecap="round" stroke-linejoin="round"/>
<path d="M4 6H1.33333V14H4V6Z" stroke="#F70D42" stroke-linecap="round" stroke-linejoin="round"/>
<path d="M2.66667 4.00016C3.40305 4.00016 4 3.40321 4 2.66683C4 1.93045 3.40305 1.3335 2.66667 1.3335C1.93029 1.3335 1.33333 1.93045 1.33333 2.66683C1.33333 3.40321 1.93029 4.00016 2.66667 4.00016Z" stroke="#F70D42" stroke-linecap="round" stroke-linejoin="round"/>
</svg>
