<svg width="16" height="16" viewBox="0 0 16 16" fill="none" xmlns="http://www.w3.org/2000/svg">
<path d="M15.3333 1.99987C14.6949 2.45019 13.9881 2.79461 13.24 3.01987C12.8385 2.55821 12.3049 2.231 11.7114 2.08249C11.1178 1.93397 10.493 1.97133 9.92139 2.1895C9.34978 2.40768 8.85897 2.79614 8.51533 3.30235C8.17169 3.80856 7.9918 4.40809 8.00001 5.01987V5.68653C6.82843 5.71691 5.66752 5.45708 4.62068 4.93017C3.57383 4.40325 2.67355 3.62562 2.00001 2.66653C2.00001 2.66653 -0.666662 8.66653 5.33334 11.3332C3.96036 12.2652 2.32478 12.7325 0.666672 12.6665C6.66667 15.9999 14 12.6665 14 4.99987C13.9994 4.81417 13.9815 4.62893 13.9467 4.44653C14.6271 3.77553 15.1072 2.92834 15.3333 1.99987V1.99987Z" stroke="#F70D42" stroke-linecap="round" stroke-linejoin="round"/>
</svg>
