<svg width="32" height="32" viewBox="0 0 32 32" fill="none" xmlns="http://www.w3.org/2000/svg">
<circle cx="16" cy="16" r="16" fill="#E1E1E1"/>
<path d="M13.4491 20.0983H10.8367C9.09506 20.0983 7.68001 18.7337 7.68001 17.0541V15.8469C7.68001 14.1674 9.09506 12.8027 10.8367 12.8027H21.2863C23.0279 12.8027 24.443 14.1674 24.443 15.8469V17.0541C24.443 18.7337 23.0279 20.0983 21.2863 20.0983" stroke="#DF0451" stroke-miterlimit="10" stroke-linecap="round" stroke-linejoin="round"/>
<path d="M9.28001 16.3199C9.28001 15.0399 9.76001 14.3999 11.6137 14.3999H14.08" stroke="#DF0451" stroke-miterlimit="10" stroke-linecap="round" stroke-linejoin="round"/>
<path d="M7.68001 22.46H9.09506" stroke="#DF0451" stroke-miterlimit="10" stroke-linecap="round" stroke-linejoin="round"/>
<path d="M7.68001 24.4805H11.2449" stroke="#DF0451" stroke-miterlimit="10" stroke-linecap="round" stroke-linejoin="round"/>
<path d="M16.0615 10.5193V8" stroke="#DF0451" stroke-miterlimit="10" stroke-linecap="round" stroke-linejoin="round"/>
<path d="M13.0409 10.6768L12.0884 8.73486" stroke="#DF0451" stroke-miterlimit="10" stroke-linecap="round" stroke-linejoin="round"/>
<path d="M18.8916 10.6768L19.844 8.73486" stroke="#DF0451" stroke-miterlimit="10" stroke-linecap="round" stroke-linejoin="round"/>
<path d="M22.1571 22.7222L19.4087 20.0192L20.7421 18.7595L14.5648 17.0537L16.1704 23.0634L17.5038 21.8037L20.2523 24.533L22.1571 22.7222Z" stroke="#1A1238" stroke-miterlimit="10" stroke-linecap="round" stroke-linejoin="round"/>
</svg>
