<svg width="80" height="80" viewBox="0 0 80 80" fill="none" xmlns="http://www.w3.org/2000/svg">
<circle cx="40" cy="40" r="40" fill="#E1E1E1"/>
<path d="M29.0624 31.3056H20.8V21.6001H45.5252V31.3056H42.9781" stroke="#1A1238" stroke-width="3" stroke-miterlimit="10" stroke-linecap="round" stroke-linejoin="round"/>
<path d="M53.1043 21.6001H59.6273" stroke="#DF0451" stroke-width="3" stroke-miterlimit="10" stroke-linecap="round" stroke-linejoin="round"/>
<path d="M53.1043 31.3054H59.6273" stroke="#DF0451" stroke-width="3" stroke-miterlimit="10" stroke-linecap="round" stroke-linejoin="round"/>
<path d="M53.1043 26.4526H59.6273" stroke="#DF0451" stroke-width="3" stroke-miterlimit="10" stroke-linecap="round" stroke-linejoin="round"/>
<path d="M32.2308 42.269L25.7078 48.8592C24.838 49.698 24.838 51.0759 25.7078 51.9147L33.1626 59.4035H57.2666C58.5712 59.4035 59.6273 58.385 59.6273 57.1269V42.6884" stroke="#DF0451" stroke-width="3" stroke-miterlimit="10" stroke-linecap="round" stroke-linejoin="round"/>
<path d="M32.6656 48.5598V32.2042C32.6656 30.347 34.2808 28.7893 36.2066 28.7893C38.1325 28.7893 39.7477 30.347 39.7477 32.2042V44.1863" stroke="#DF0451" stroke-width="3" stroke-miterlimit="10" stroke-linecap="round" stroke-linejoin="round"/>
<path d="M39.6856 44.1862V42.269C39.6856 40.5316 41.1766 39.0938 42.9782 39.0938C44.7797 39.0938 46.2707 40.5316 46.2707 42.269V44.1862" stroke="#DF0451" stroke-width="3" stroke-miterlimit="10" stroke-linecap="round" stroke-linejoin="round"/>
<path d="M46.3328 44.1862V42.269C46.3328 40.5316 47.8238 39.0938 49.6254 39.0938C51.427 39.0938 52.9179 40.5316 52.9179 42.269V44.1862" stroke="#DF0451" stroke-width="3" stroke-miterlimit="10" stroke-linecap="round" stroke-linejoin="round"/>
<path d="M52.9178 44.1862V42.269C52.9178 40.5316 54.4088 39.0938 56.2104 39.0938C58.012 39.0938 59.5029 40.5316 59.5029 42.269V44.1862" stroke="#DF0451" stroke-width="3" stroke-miterlimit="10" stroke-linecap="round" stroke-linejoin="round"/>
</svg>
