<svg width="80" height="80" viewBox="0 0 80 80" fill="none" xmlns="http://www.w3.org/2000/svg">
<circle cx="40" cy="40" r="40" fill="#E1E1E1"/>
<path d="M33.6226 50.2453H27.0916C22.7376 50.2453 19.2 46.8337 19.2 42.6348V39.6168C19.2 35.4179 22.7376 32.0063 27.0916 32.0063H53.2157C57.5697 32.0063 61.1073 35.4179 61.1073 39.6168V42.6348C61.1073 46.8337 57.5697 50.2453 53.2157 50.2453" stroke="#DF0451" stroke-width="3" stroke-miterlimit="10" stroke-linecap="round" stroke-linejoin="round"/>
<path d="M23.2 40.8C23.2 37.6 24.4 36 29.0342 36H35.2" stroke="#DF0451" stroke-width="3" stroke-miterlimit="10" stroke-linecap="round" stroke-linejoin="round"/>
<path d="M19.2 56.1499H22.7376" stroke="#DF0451" stroke-width="3" stroke-miterlimit="10" stroke-linecap="round" stroke-linejoin="round"/>
<path d="M19.2 61.2017H28.1121" stroke="#DF0451" stroke-width="3" stroke-miterlimit="10" stroke-linecap="round" stroke-linejoin="round"/>
<path d="M40.1537 26.2983V20" stroke="#DF0451" stroke-width="3" stroke-miterlimit="10" stroke-linecap="round" stroke-linejoin="round"/>
<path d="M32.6022 26.6921L30.2211 21.8372" stroke="#DF0451" stroke-width="3" stroke-miterlimit="10" stroke-linecap="round" stroke-linejoin="round"/>
<path d="M47.2289 26.6921L49.61 21.8372" stroke="#DF0451" stroke-width="3" stroke-miterlimit="10" stroke-linecap="round" stroke-linejoin="round"/>
<path d="M55.3928 56.8059L48.5216 50.0482L51.8551 46.899L36.412 42.6345L40.4258 57.6588L43.7594 54.5096L50.6306 61.3328L55.3928 56.8059Z" stroke="#1A1238" stroke-width="3" stroke-miterlimit="10" stroke-linecap="round" stroke-linejoin="round"/>
</svg>
