<svg width="32" height="32" viewBox="0 0 32 32" fill="none" xmlns="http://www.w3.org/2000/svg">
<circle cx="16" cy="16" r="16" fill="#E1E1E1"/>
<path d="M11.625 12.5223H8.32001V8.64014H18.2101V12.5223H17.1913" stroke="#1A1238" stroke-miterlimit="10" stroke-linecap="round" stroke-linejoin="round"/>
<path d="M21.2417 8.64014H23.8509" stroke="#DF0451" stroke-miterlimit="10" stroke-linecap="round" stroke-linejoin="round"/>
<path d="M21.2417 12.522H23.8509" stroke="#DF0451" stroke-miterlimit="10" stroke-linecap="round" stroke-linejoin="round"/>
<path d="M21.2417 10.5811H23.8509" stroke="#DF0451" stroke-miterlimit="10" stroke-linecap="round" stroke-linejoin="round"/>
<path d="M12.8923 16.9077L10.2831 19.5438C9.93523 19.8793 9.93523 20.4305 10.2831 20.766L13.2651 23.7615H22.9066C23.4285 23.7615 23.8509 23.3541 23.8509 22.8509V17.0755" stroke="#DF0451" stroke-miterlimit="10" stroke-linecap="round" stroke-linejoin="round"/>
<path d="M13.0662 19.4238V12.8816C13.0662 12.1387 13.7123 11.5156 14.4827 11.5156C15.253 11.5156 15.8991 12.1387 15.8991 12.8816V17.6744" stroke="#DF0451" stroke-miterlimit="10" stroke-linecap="round" stroke-linejoin="round"/>
<path d="M15.8743 17.6747V16.9078C15.8743 16.2128 16.4706 15.6377 17.1913 15.6377C17.9119 15.6377 18.5083 16.2128 18.5083 16.9078V17.6747" stroke="#DF0451" stroke-miterlimit="10" stroke-linecap="round" stroke-linejoin="round"/>
<path d="M18.5331 17.6747V16.9078C18.5331 16.2128 19.1295 15.6377 19.8502 15.6377C20.5708 15.6377 21.1672 16.2128 21.1672 16.9078V17.6747" stroke="#DF0451" stroke-miterlimit="10" stroke-linecap="round" stroke-linejoin="round"/>
<path d="M21.1672 17.6747V16.9078C21.1672 16.2128 21.7635 15.6377 22.4842 15.6377C23.2048 15.6377 23.8012 16.2128 23.8012 16.9078V17.6747" stroke="#DF0451" stroke-miterlimit="10" stroke-linecap="round" stroke-linejoin="round"/>
</svg>
