<svg width="32" height="32" viewBox="0 0 32 32" fill="none" xmlns="http://www.w3.org/2000/svg">
<circle cx="16" cy="16" r="16" fill="#E1E1E1"/>
<path d="M14.7123 10.7886H17.7485" stroke="#DF0451" stroke-miterlimit="10" stroke-linecap="round" stroke-linejoin="round"/>
<path d="M11.04 16.4771H14.0762" stroke="#DF0451" stroke-miterlimit="10" stroke-linecap="round" stroke-linejoin="round"/>
<path d="M11.04 18.5405H14.0762" stroke="#DF0451" stroke-miterlimit="10" stroke-linecap="round" stroke-linejoin="round"/>
<path d="M11.04 20.5762H14.0762" stroke="#DF0451" stroke-miterlimit="10" stroke-linecap="round" stroke-linejoin="round"/>
<path d="M23.04 20.5763V23.4486C23.04 23.9784 22.6063 24.3967 22.0569 24.3967H9.62313C9.07373 24.3967 8.64 23.9784 8.64 23.4486V8.94811C8.64 8.41828 9.07373 8 9.62313 8H22.0569" stroke="#DF0451" stroke-miterlimit="10" stroke-linecap="round" stroke-linejoin="round"/>
<path d="M20.5244 20.5205L19.7726 18.9589L18.2689 18.3176L17.575 16.8396L16.0424 16.1982" stroke="#1A1238" stroke-miterlimit="10" stroke-linecap="round" stroke-linejoin="round"/>
<path d="M23.04 9.42236L16.0424 16.1985V20.5766H20.4376L23.04 18.2342" stroke="#1A1238" stroke-miterlimit="10" stroke-linecap="round" stroke-linejoin="round"/>
<path d="M16.0424 19.4888L17.1123 20.5205L16.0424 20.5763V19.4888Z" fill="#1A1238"/>
</svg>
